<svg width="300" height="300" viewBox="0 0 300 300" fill="none" xmlns="http://www.w3.org/2000/svg">
<rect width="300" height="300" fill="white"/>
<path d="M95 97H147L133 214H81L95 97Z" fill="#8CA683"/>
<path d="M128 160.5C128 175.688 115.613 183 106.5 183C97.3873 183 101.5 169.688 101.5 154.5C101.5 139.312 113.887 130.5 123 130.5C132.113 130.5 128 145.312 128 160.5Z" fill="#657460"/>
<path d="M155 85H207L193 202H141L155 85Z" fill="#8CA683"/>
<path d="M188 148.5C188 163.688 175.613 171 166.5 171C157.387 171 161.5 157.688 161.5 142.5C161.5 127.312 173.887 118.5 183 118.5C192.113 118.5 188 133.312 188 148.5Z" fill="#657460"/>
<path d="M155 85H207L193 202H141L155 85Z" fill="#8CA683"/>
<path d="M188 148.5C188 163.688 175.613 171 166.5 171C157.387 171 161.5 157.688 161.5 142.5C161.5 127.312 173.887 118.5 183 118.5C192.113 118.5 188 133.312 188 148.5Z" fill="#657460"/>
</svg>
