<svg width="300" height="300" viewBox="0 0 300 300" fill="none" xmlns="http://www.w3.org/2000/svg">
<rect width="300" height="300" fill="white"/>
<circle cx="150" cy="115" r="8" fill="#8CA683"/>
<path d="M150 95L156.062 111.5H143.938L150 95Z" fill="#8CA683"/>
<ellipse cx="150" cy="116.5" rx="2" ry="2.5" fill="#CED1A2"/>
<path d="M150 102L151.732 115.5H148.268L150 102Z" fill="#CED1A2"/>
<path d="M216.5 213.5C216.5 214.168 216.139 214.886 215.302 215.65C214.466 216.412 213.204 217.171 211.533 217.908C208.194 219.381 203.332 220.719 197.284 221.847C185.198 224.102 168.48 225.5 150 225.5C131.52 225.5 114.802 224.102 102.716 221.847C96.6684 220.719 91.8058 219.381 88.467 217.908C86.7958 217.171 85.5342 216.412 84.6981 215.65C83.8608 214.886 83.5 214.168 83.5 213.5C83.5 212.832 83.8608 212.114 84.6981 211.35C85.5342 210.588 86.7958 209.829 88.467 209.092C91.8058 207.619 96.6684 206.281 102.716 205.153C114.802 202.898 131.52 201.5 150 201.5C168.48 201.5 185.198 202.898 197.284 205.153C203.332 206.281 208.194 207.619 211.533 209.092C213.204 209.829 214.466 210.588 215.302 211.35C216.139 212.114 216.5 212.832 216.5 213.5Z" fill="#8CA683" stroke="#798973"/>
<rect x="83" y="163" width="134" height="51" fill="#8CA683"/>
<path d="M216.5 163C216.5 163.71 216.131 164.464 215.295 165.257C214.458 166.05 213.197 166.839 211.526 167.606C208.189 169.137 203.327 170.528 197.281 171.702C185.196 174.046 168.48 175.5 150 175.5C131.52 175.5 114.804 174.046 102.719 171.702C96.6726 170.528 91.8113 169.137 88.4737 167.606C86.8034 166.839 85.5419 166.05 84.7052 165.257C83.8687 164.464 83.5 163.71 83.5 163C83.5 162.29 83.8687 161.536 84.7052 160.743C85.5419 159.95 86.8034 159.161 88.4737 158.394C91.8113 156.863 96.6726 155.472 102.719 154.298C114.804 151.954 131.52 150.5 150 150.5C168.48 150.5 185.196 151.954 197.281 154.298C203.327 155.472 208.189 156.863 211.526 158.394C213.197 159.161 214.458 159.95 215.295 160.743C216.131 161.536 216.5 162.29 216.5 163Z" fill="#8CA683" stroke="#798973"/>
<rect x="145" y="125" width="10" height="36" fill="#72856B"/>
</svg>
